<svg width="96" height="96" viewBox="0 0 96 96" fill="none" xmlns="http://www.w3.org/2000/svg">
  <path
    d="M0 32C0 14.3269 14.3269 0 32 0H64C81.6731 0 96 14.3269 96 32V64C96 81.6731 81.6731 96 64 96H32C14.3269 96 0 81.6731 0 64V32Z"
    fill="#FF6C01"/>
  <path fill-rule="evenodd" clip-rule="evenodd"
        d="M74 16C70.6863 16 68 18.6863 68 22V32H80V22C80 18.6863 77.3137 16 74 16ZM48 74C48 73.9175 48.0012 73.8354 48.0037 73.7535C48.0003 73.651 47.9985 73.5471 47.9984 73.4419L48 68H38H22H16V73.6013C16.0001 73.6674 16.0012 73.7332 16.0033 73.7988C16.0011 73.8656 16 73.9327 16 74C16 77.3137 18.6863 80 22 80H22.0757H38V79.9917L50.7026 80L50.693 79.9864C49.0411 78.5209 48 76.382 48 74ZM64 22V21.8648C64 21.7086 64.0077 21.5501 64.023 21.3894C64.1847 19.2468 65.1903 17.3398 66.7083 16L26.6042 16.0001C24.2408 15.9816 22.3105 17.94 22.286 20.3754L22 64H40.9463H52V68V70V74C52 77.3137 54.6863 80 58 80C61.3137 80 64 77.3137 64 74V70V68V22ZM30 34H56V38H30V34ZM56 42H30V46H56V42ZM30 50H56V54H30V50Z"
        fill="white"/>
</svg>
