<svg width="125" height="33" viewBox="0 0 125 33" fill="none" xmlns="http://www.w3.org/2000/svg">
  <path fill-rule="evenodd" clip-rule="evenodd"
        d="M5.932 16.83v-5.77h7.416V7.381H5.932V3.68h8.424V0H1.18v16.83h4.752Zm27.408 0V0h-4.752v16.83h4.752Zm20.04-8.968v8.969h-4.656V0h3.912l7.416 8.968V0h4.656v16.83h-3.912L53.38 7.863Zm40.176 8.969v-3.68h-8.784v-3.077h7.464V6.516h-7.464V3.679h8.472V0H80.068v16.83h13.488Zm21.624-5.218-3.432 5.218h-5.424l6.12-8.512L106.588 0h5.352l3.36 4.857L118.612 0h5.136l-5.856 8.127 6.24 8.704h-5.472l-3.48-5.218ZM9.022 31.942c.336 0 .63-.061.882-.183s.462-.286.63-.49c.168-.204.294-.441.378-.71.084-.268.126-.55.126-.847 0-.293-.042-.574-.126-.845a2.113 2.113 0 0 0-.378-.715 1.828 1.828 0 0 0-.63-.493 2 2 0 0 0-.882-.183 2.02 2.02 0 0 0-.885.183 1.82 1.82 0 0 0-.633.493 2.113 2.113 0 0 0-.378.715c-.084.271-.126.552-.126.845 0 .297.042.58.126.848.084.268.21.505.378.709.168.204.379.368.633.49s.549.183.885.183Zm-8.614-.084V33H0v-1.49h.45c.152-.281.27-.569.354-.863a6.66 6.66 0 0 0 .189-.88c.042-.293.068-.578.078-.854.01-.277.015-.537.015-.782v-.565h2.652v3.943h.51V33H3.84v-1.142H.408Zm.474-.349H3.33v-3.594H1.494v.144c0 .24-.003.502-.009.784a7.901 7.901 0 0 1-.069.875c-.04.3-.101.603-.183.908-.082.304-.199.599-.351.883Zm7.408-.072c.204.108.448.162.732.162.28 0 .522-.054.726-.162.204-.108.371-.251.501-.43.13-.178.226-.38.288-.604a2.584 2.584 0 0 0 0-1.38 1.85 1.85 0 0 0-.288-.606 1.45 1.45 0 0 0-.501-.43 1.529 1.529 0 0 0-.726-.162c-.284 0-.528.054-.732.162a1.45 1.45 0 0 0-.501.43 1.85 1.85 0 0 0-.288.607 2.594 2.594 0 0 0 0 1.38c.062.224.158.425.288.603.13.179.297.322.501.43Zm6.28.42V28.15h.012l1.47 3.709h.384l1.464-3.709h.012v3.709h.408v-4.292h-.6l-1.476 3.763-1.482-3.763h-.6v4.292h.408Zm7.582-1.334-.516 1.335h-.432l1.722-4.292h.456l1.68 4.292h-.438l-.522-1.335h-1.95Zm1.812-.348h-1.686l.858-2.2.828 2.2Zm9.268-2.609v4.292h-5.28v-4.292h.408v3.943h2.028v-3.943h.408v3.943h2.028v-3.943h.408Zm3.772 4.292v-2.08h2.544v2.08h.408v-4.292h-.408v1.864h-2.544v-1.864h-.408v4.292h.408Zm7.864-1.84-1.428 1.84h-.528l1.464-1.864a1.594 1.594 0 0 1-.489-.096 1.192 1.192 0 0 1-.39-.234c-.11-.1-.196-.222-.258-.364a1.232 1.232 0 0 1-.093-.496c0-.192.03-.364.09-.517.06-.152.147-.281.261-.387.114-.106.25-.189.408-.247.158-.058.337-.087.537-.087h1.794v4.292h-.408v-1.84h-.96Zm.96-.348h-1.296c-.3 0-.538-.075-.714-.226-.176-.15-.264-.363-.264-.64 0-.276.088-.493.264-.652.176-.158.414-.237.714-.237h1.296v1.755Zm5.32.349-1.428 1.839h-.528l1.464-1.864a1.594 1.594 0 0 1-.489-.096 1.192 1.192 0 0 1-.39-.234c-.11-.1-.196-.222-.258-.364a1.232 1.232 0 0 1-.093-.496c0-.192.03-.364.09-.517.06-.152.147-.281.261-.387.114-.106.25-.189.408-.247.158-.058.337-.087.537-.087h1.794v4.292h-.408v-1.84h-.96Zm.96-.35h-1.296c-.3 0-.538-.074-.714-.224-.176-.15-.264-.364-.264-.64 0-.277.088-.494.264-.653.176-.158.414-.237.714-.237h1.296v1.755Zm10.79 1.858c-.224.22-.536.33-.936.33H59.94v-4.29h2.958v.348h-2.55v1.466h1.614c.4 0 .712.11.936.331.224.22.336.523.336.908 0 .384-.112.687-.336.907Zm-1.026-.018h-1.524V29.73h1.524c.3 0 .534.08.702.238.168.158.252.375.252.652 0 .276-.084.494-.252.652-.168.158-.402.237-.702.237Zm5.257.37a1.725 1.725 0 0 1-.552.009 1.006 1.006 0 0 1-.183-.042v-.36a1.325 1.325 0 0 0 .438.072.534.534 0 0 0 .381-.145c.102-.096.201-.246.297-.45l.054-.115-1.59-3.282h.438l1.392 2.85 1.356-2.85h.432l-1.686 3.498a2.555 2.555 0 0 1-.258.442 1.18 1.18 0 0 1-.255.256.7.7 0 0 1-.264.117Zm5.299-.021 1.32-1.893 1.302 1.893h.492l-1.548-2.2 1.464-2.092h-.456l-1.254 1.797-1.212-1.797h-.48l1.452 2.08-1.536 2.212h.456Zm6.43-3.943v3.943h-.408v-4.292h2.646v.349h-2.238Zm5.104 3.943.516-1.335h1.95l.522 1.335h.438l-1.68-4.292h-.456l-1.722 4.292h.432Zm.642-1.683h1.686l-.828-2.2-.858 2.2Zm5.566 1.719c.072 0 .153-.006.243-.018a.576.576 0 0 0 .27-.12c.09-.068.178-.178.264-.328.086-.15.163-.364.231-.643s.122-.631.162-1.058c.04-.427.06-.953.06-1.578v-.234h1.83v3.943h.408v-4.292h-2.634v.607c0 .561-.016 1.034-.048 1.419a8.691 8.691 0 0 1-.123.953c-.05.25-.108.442-.174.577a1.035 1.035 0 0 1-.198.294.378.378 0 0 1-.189.108.967.967 0 0 1-.303.006.433.433 0 0 1-.147-.033v.349a1.006 1.006 0 0 0 .156.03l.105.012a.762.762 0 0 0 .087.006Zm8.272-3.98v3.944h-.408v-3.943h-1.488v-.349h3.39v.349h-1.494Zm7.384 3.944v-.349h-2.58v-1.695h2.388v-.348h-2.388v-1.551h2.55v-.349h-2.958v4.292h2.988Zm3.478-1.84v1.84h-.408v-4.292h1.902c.192 0 .366.027.522.081a1.063 1.063 0 0 1 .66.628c.06.153.09.325.09.517 0 .193-.03.365-.09.517a1.063 1.063 0 0 1-.66.628c-.156.054-.33.082-.522.082h-1.494Zm1.404-.348h-1.404v-1.755h1.404c.284 0 .514.072.69.216.176.144.264.365.264.661 0 .297-.088.517-.264.661-.176.145-.406.217-.69.217Zm7.456-1.665-2.46 3.853h-.528v-4.292h.408v3.853l2.46-3.853h.528v4.292h-.408v-3.853Zm3.892 3.853 1.428-1.84h.96v1.84h.408v-4.292h-1.794c-.2 0-.379.03-.537.087-.158.058-.294.14-.408.247a1.046 1.046 0 0 0-.261.387c-.06.153-.09.325-.09.517 0 .189.031.354.093.496.062.142.148.264.258.364.11.1.24.178.39.234.15.056.313.088.489.096l-1.464 1.864h.528Zm1.092-2.188h1.296v-1.755h-1.296c-.3 0-.538.079-.714.237-.176.159-.264.376-.264.652 0 .277.088.49.264.64.176.15.414.226.714.226Z"
        fill="currentColor"/>
</svg>