<svg width="110" height="139" viewBox="0 0 110 139" fill="none" xmlns="http://www.w3.org/2000/svg">
  <path fill-rule="evenodd" clip-rule="evenodd" d="M0 109a5 5 0 0 1 5-5h55l-8.964 31.374A5 5 0 0 1 46.228 139H5a5 5 0 0 1-5-5v-25Z" fill="url(#paint0_linear_354_17389)"/>
  <path fill-rule="evenodd" clip-rule="evenodd" d="M0 87h51l9 17H9L0 87Z" fill="url(#paint1_linear_354_17389)"/>
  <path fill-rule="evenodd" clip-rule="evenodd" d="M0 35h66l9 17H9L0 35Z" fill="url(#paint2_linear_354_17389)"/>
  <path fill-rule="evenodd" clip-rule="evenodd" d="M0 57a5 5 0 0 1 5-5h70l-8.964 31.374A5 5 0 0 1 61.228 87H0V57Z" fill="url(#paint3_linear_354_17389)"/>
  <path fill-rule="evenodd" clip-rule="evenodd" d="M0 5a5 5 0 0 1 5-5h98.371c3.322 0 5.721 3.18 4.808 6.374l-7.143 25A5 5 0 0 1 96.228 35H0V5Z" fill="url(#paint4_linear_354_17389)"/>
  <path fill-rule="evenodd" clip-rule="evenodd" d="M0 5a5 5 0 0 1 5-5h98.371c3.322 0 5.721 3.18 4.808 6.374l-7.143 25A5 5 0 0 1 96.228 35H0V5Z" fill="url(#paint5_linear_354_17389)"/>
  <defs>
    <linearGradient id="paint0_linear_354_17389" x1="65.639" y1="102.355" x2="0" y2="102.355" gradientUnits="userSpaceOnUse">
      <stop stop-color="#F49D57"/>
      <stop offset="1" stop-color="#EA7415"/>
    </linearGradient>
    <linearGradient id="paint1_linear_354_17389" x1="1.41" y1="86.355" x2="1.497" y2="104.158" gradientUnits="userSpaceOnUse">
      <stop stop-color="#F2954A"/>
      <stop offset="1" stop-color="#BE5500"/>
    </linearGradient>
    <linearGradient id="paint2_linear_354_17389" x1="-3.767" y1="33.877" x2="-3.622" y2="53.35" gradientUnits="userSpaceOnUse">
      <stop stop-color="#2B77B8"/>
      <stop offset="1" stop-color="#004684"/>
    </linearGradient>
    <linearGradient id="paint3_linear_354_17389" x1="83.923" y1="49.918" x2="0" y2="49.918" gradientUnits="userSpaceOnUse">
      <stop stop-color="#337AB7"/>
      <stop offset="1" stop-color="#0067BF"/>
    </linearGradient>
    <linearGradient id="paint4_linear_354_17389" x1="110" y1="0" x2="0" y2="0" gradientUnits="userSpaceOnUse">
      <stop offset=".001" stop-color="#4D5A75"/>
      <stop offset="1" stop-color="#273248"/>
    </linearGradient>
    <linearGradient id="paint5_linear_354_17389" x1="110" y1="0" x2="0" y2="0" gradientUnits="userSpaceOnUse">
      <stop offset=".001" stop-color="#465473"/>
      <stop offset="1" stop-color="#273248"/>
    </linearGradient>
  </defs>
</svg>