<svg width="50" height="50" viewBox="0 0 50 50" fill="none" xmlns="http://www.w3.org/2000/svg">
  <circle cx="25" cy="25" r="25" fill="#507299"/>
  <path fill-rule="evenodd" clip-rule="evenodd"
        d="M34.377 28.174c.862.915 1.772 1.777 2.546 2.785.342.448.665.91.913 1.43.35.739.033 1.552-.577 1.596l-3.787-.002c-.977.088-1.757-.34-2.412-1.066-.524-.58-1.01-1.199-1.514-1.8a3.703 3.703 0 0 0-.682-.658c-.517-.365-.966-.253-1.261.333-.301.596-.37 1.257-.399 1.922-.04.97-.31 1.225-1.206 1.269-1.915.098-3.732-.217-5.42-1.267-1.488-.926-2.642-2.233-3.647-3.713-1.956-2.882-3.454-6.048-4.8-9.303-.303-.734-.081-1.128.663-1.142a94.52 94.52 0 0 1 3.708-.001c.503.008.835.32 1.029.837.669 1.787 1.486 3.488 2.513 5.064.274.42.553.84.95 1.135.439.327.773.219.98-.313.131-.338.189-.701.218-1.062.098-1.244.11-2.485-.06-3.723-.106-.774-.507-1.274-1.216-1.42-.362-.075-.308-.221-.133-.446.304-.388.59-.629 1.162-.629h4.28c.674.145.824.474.916 1.211l.004 5.171c-.008.285.131 1.133.604 1.321.378.135.628-.194.855-.455 1.025-1.183 1.756-2.581 2.41-4.029.29-.636.54-1.297.78-1.958.18-.49.46-.73.968-.72l4.12.004c.123 0 .246.002.364.024.695.128.885.453.67 1.19-.337 1.157-.995 2.12-1.637 3.09-.688 1.033-1.422 2.031-2.104 3.071-.626.95-.576 1.429.202 2.253Z"
        fill="#fff"/>
</svg>
