<svg width="100" height="100" viewBox="0 0 100 100" fill="none" xmlns="http://www.w3.org/2000/svg">
  <g clip-path="url(#clip0_354_20063)">
    <g filter="url(#filter0_ii_354_20063)">
      <circle cx="50" cy="50" r="32" fill="url(#paint0_linear_354_20063)"/>
    </g>
    <g filter="url(#filter1_ii_354_20063)">
      <path fill-rule="evenodd" clip-rule="evenodd"
            d="m44.375 19.804 9.997-9.337c1.144-1.069 3.013-.257 3.013 1.31v3.152s7.256 1.6 13.747 8.643c3.298 3.579 4.85 8.736 5.579 12.943a29.582 29.582 0 0 0-26.23-15.828c-1.644 0-3.257.133-4.829.39l-1.277-1.273ZM23.2 61.47c.56 4.456 2.03 10.782 5.88 14.959 6.49 7.042 13.746 8.642 13.746 8.642v3.153c0 1.566 1.869 2.378 3.013 1.309l9.997-9.337-.99-.987c-1.424.21-2.882.319-4.365.319A29.577 29.577 0 0 1 23.2 61.47Z"
            fill="url(#paint1_linear_354_20063)"/>
    </g>
    <g filter="url(#filter2_ii_354_20063)">
      <circle cx="50" cy="50" r="25" fill="#5AC339"/>
    </g>
    <g opacity=".7" filter="url(#filter3_f_354_20063)">
      <path d="M52.258 58.512c0-.64-.18-1.149-.54-1.524-.35-.383-.952-.734-1.804-1.054a22.327 22.327 0 0 1-2.203-.95 7.42 7.42 0 0 1-1.594-1.09 4.56 4.56 0 0 1-1.031-1.453c-.242-.554-.363-1.214-.363-1.98 0-1.32.422-2.402 1.265-3.246.844-.844 1.965-1.336 3.364-1.477V43.23h1.875v2.543c1.382.196 2.464.774 3.246 1.735.78.953 1.172 2.191 1.172 3.715h-3.387c0-.938-.196-1.637-.586-2.098-.383-.469-.899-.703-1.547-.703-.64 0-1.137.184-1.488.55-.352.36-.528.86-.528 1.5 0 .594.172 1.071.516 1.43.344.36.98.727 1.91 1.102.938.375 1.707.73 2.309 1.066.601.328 1.11.703 1.523 1.125.414.414.73.89.95 1.43.218.531.328 1.152.328 1.863 0 1.328-.415 2.407-1.243 3.235-.828.828-1.968 1.316-3.422 1.465v2.331h-1.863V63.2c-1.601-.172-2.844-.738-3.726-1.699-.875-.969-1.313-2.254-1.313-3.855h3.387c0 .93.219 1.644.656 2.144.445.492 1.082.738 1.91.738.688 0 1.23-.18 1.63-.539.398-.367.597-.86.597-1.476Z"
            fill="#29344A"/>
      <path d="m51.719 56.988-2.21 2.03.022.023.022.023 2.166-2.076Zm-4.008-2.004-1.382 2.663.013.007.014.007 1.355-2.677Zm-1.594-1.09-2.062 2.18.02.018.02.019 2.022-2.216Zm-1.031-1.453-2.75 1.2.008.017.007.016 2.735-1.233Zm4.266-6.703.3 2.985 2.7-.271v-2.714h-3Zm0-2.508v-3h-3v3h3Zm1.875 0h3v-3h-3v3Zm0 2.543h-3v2.606l2.58.365.42-2.97Zm3.246 1.735L52.145 49.4l.008.01 2.32-1.902Zm1.172 3.715v3h3v-3h-3Zm-3.387 0h-3v3h3v-3Zm-.586-2.098-2.324 1.898.017.02.018.022 2.289-1.94Zm-3.035-.152 2.144 2.098.011-.012.012-.012-2.167-2.074Zm1.898 4.03-1.122 2.783.008.003 1.114-2.785Zm2.309 1.067-1.463 2.62.013.007.013.007 1.437-2.634Zm1.523 1.125-2.14 2.102.009.01.01.01 2.121-2.122Zm.95 1.43-2.78 1.128.002.007.003.007 2.774-1.142Zm-4.337 6.563-.304-2.985-2.696.275v2.71h3Zm0 2.331v3h3v-3h-3Zm-1.863 0h-3v3h3v-3Zm0-2.32h3v-2.695l-2.68-.288-.32 2.983ZM45.391 61.5l-2.227 2.01.009.01.008.01 2.21-2.03Zm-1.313-3.855v-3h-3v3h3Zm3.387 0h3v-3h-3v3Zm.656 2.144-2.258 1.976.017.018.017.019 2.224-2.013Zm3.54.2 2.008 2.227.012-.01.012-.012-2.033-2.206Zm3.597-1.477c0-1.224-.36-2.542-1.373-3.6l-4.332 4.152a1.178 1.178 0 0 1-.258-.413c-.043-.122-.037-.182-.037-.14h6Zm-1.33-3.553c-.825-.899-1.95-1.454-2.958-1.833l-2.112 5.616c.312.117.514.217.632.286.124.072.102.08.02-.01l4.418-4.059Zm-2.958-1.833a19.386 19.386 0 0 1-1.904-.818l-2.71 5.353c.739.374 1.578.733 2.502 1.08l2.112-5.615Zm-1.877-.804a4.436 4.436 0 0 1-.954-.644l-4.044 4.433c.666.607 1.42 1.114 2.234 1.536l2.764-5.325Zm-.914-.606a1.562 1.562 0 0 1-.358-.507l-5.47 2.465c.409.907.98 1.714 1.704 2.4l4.124-4.358Zm-.344-.475c-.039-.09-.112-.322-.112-.78h-6c0 1.073.169 2.161.614 3.18l5.498-2.4Zm-.112-.78c0-.618.168-.906.387-1.125l-4.243-4.242c-1.469 1.468-2.144 3.344-2.144 5.367h6Zm.387-1.125c.27-.27.704-.529 1.542-.613l-.6-5.97c-1.96.197-3.768.924-5.185 2.34l4.243 4.243Zm4.242-3.598V43.23h-6v2.508h6Zm-3 .492h1.875v-6h-1.875v6Zm-1.125-3v2.543h6V43.23h-6Zm2.58 5.514c.737.104 1.096.359 1.338.656l4.655-3.785c-1.32-1.624-3.125-2.526-5.154-2.812l-.839 5.941Zm1.346.666c.245.299.492.814.492 1.813h6c0-2.048-.535-4.01-1.852-5.617l-4.64 3.804Zm3.492-1.187h-3.387v6h3.386v-6Zm-.387 3c0-1.275-.253-2.806-1.297-4.038l-4.578 3.88c-.135-.16-.166-.279-.161-.263a.842.842 0 0 1 .02.118c.009.072.016.171.016.303h6Zm-1.263-3.996c-.997-1.221-2.395-1.805-3.87-1.805v6a1.15 1.15 0 0 1-.777-.4l4.648-3.795Zm-3.87-1.805c-1.233 0-2.599.372-3.655 1.476l4.334 4.15c-.152.158-.33.266-.49.325-.148.055-.227.049-.189.049v-6Zm-3.633 1.453c-1.04 1.062-1.383 2.398-1.383 3.598h6c0-.05.008.01-.038.14-.049.14-.143.307-.29.458l-4.289-4.196Zm-1.383 3.598c0 1.206.37 2.48 1.348 3.503l4.336-4.147c.123.128.214.28.267.429.05.139.05.223.05.215h-6Zm1.348 3.503c.808.845 1.952 1.405 2.956 1.81l2.244-5.564a6.547 6.547 0 0 1-.798-.374c-.177-.102-.16-.118-.066-.02l-4.336 4.148Zm2.964 1.813c.867.347 1.51.649 1.96.9l2.925-5.238c-.752-.42-1.65-.83-2.657-1.233l-2.228 5.571Zm1.986.915c.382.208.642.413.82.593l4.281-4.203a9.414 9.414 0 0 0-2.228-1.657l-2.873 5.267Zm.839.613c.132.132.224.271.29.436l5.56-2.256a7.277 7.277 0 0 0-1.607-2.423l-4.243 4.243Zm.296.45c.04.094.102.312.102.721h6c0-1.012-.155-2.037-.554-3.005l-5.548 2.284Zm.102.721c0 .649-.175.925-.363 1.113l4.243 4.243c1.468-1.468 2.12-3.348 2.12-5.356h-6Zm-.363 1.113c-.229.23-.665.506-1.605.602l.61 5.969c1.965-.2 3.81-.9 5.238-2.328l-4.243-4.243Zm-4.3 3.587v2.331h6v-2.332h-6Zm3-.669h-1.864v6h1.864v-6Zm1.136 3V63.2h-6v2.32h6Zm-2.68-5.303c-1.053-.113-1.556-.44-1.837-.746l-4.419 4.06c1.485 1.615 3.467 2.421 5.616 2.652l.64-5.966Zm-1.82-.727c-.27-.299-.539-.81-.539-1.844h-6c0 2.168.606 4.227 2.086 5.866l4.453-4.022Zm-3.539 1.156h3.387v-6h-3.387v6Zm.387-3c0 1.367.321 2.889 1.398 4.12l4.516-3.952c.044.05.074.098.095.135.02.036.025.056.024.052a1.363 1.363 0 0 1-.033-.355h-6Zm1.431 4.157c1.15 1.27 2.685 1.725 4.135 1.725v-6c-.12 0-.108-.018-.017.017a.928.928 0 0 1 .331.232l-4.448 4.026Zm4.135 1.725c1.215 0 2.547-.327 3.639-1.311l-4.02-4.455c.13-.117.265-.184.362-.217.086-.028.105-.017.02-.017v6Zm3.662-1.333c1.104-1.016 1.565-2.355 1.565-3.682h-6c0-.016.003-.13.07-.294.07-.173.18-.325.3-.436l4.065 4.412Z"
            fill="#28820C" fill-opacity=".2"/>
    </g>
    <g filter="url(#filter4_ii_354_20063)" fill-rule="evenodd" clip-rule="evenodd">
      <path d="M50.758 56.84c.351 0 .586-.223.586-.61V54.8c3.375-.198 5.8-1.991 5.8-4.956 0-2.567-1.675-3.856-4.886-4.582l-.914-.2v-4.124c1.125.152 1.863.726 2.32 1.687.375.68.879 1.02 1.605 1.02.891 0 1.477-.504 1.477-1.278 0-.246-.047-.48-.117-.715-.563-1.804-2.496-3.175-5.285-3.363v-1.465c0-.386-.235-.61-.586-.61-.352 0-.586.224-.586.61v1.465c-3.27.164-5.613 1.992-5.613 4.816 0 2.532 1.675 3.903 4.746 4.594l.867.2v4.265c-1.477-.129-2.215-.797-2.59-1.71-.328-.68-.82-1.056-1.547-1.056-.96 0-1.535.575-1.535 1.418 0 .223.047.47.14.739.575 1.71 2.52 3.105 5.532 3.246v1.43c0 .386.234.609.586.609Zm-.586-12.047c-1.64-.422-2.332-1.043-2.332-1.992 0-.95.797-1.735 2.332-1.875v3.867Zm1.172 3.375v3.996c1.687-.129 2.531-.879 2.531-1.957 0-1.043-.656-1.57-2.531-2.039Z"
            fill="#29344A"/>
      <path d="M50.758 56.84c.351 0 .586-.223.586-.61V54.8c3.375-.198 5.8-1.991 5.8-4.956 0-2.567-1.675-3.856-4.886-4.582l-.914-.2v-4.124c1.125.152 1.863.726 2.32 1.687.375.68.879 1.02 1.605 1.02.891 0 1.477-.504 1.477-1.278 0-.246-.047-.48-.117-.715-.563-1.804-2.496-3.175-5.285-3.363v-1.465c0-.386-.235-.61-.586-.61-.352 0-.586.224-.586.61v1.465c-3.27.164-5.613 1.992-5.613 4.816 0 2.532 1.675 3.903 4.746 4.594l.867.2v4.265c-1.477-.129-2.215-.797-2.59-1.71-.328-.68-.82-1.056-1.547-1.056-.96 0-1.535.575-1.535 1.418 0 .223.047.47.14.739.575 1.71 2.52 3.105 5.532 3.246v1.43c0 .386.234.609.586.609Zm-.586-12.047c-1.64-.422-2.332-1.043-2.332-1.992 0-.95.797-1.735 2.332-1.875v3.867Zm1.172 3.375v3.996c1.687-.129 2.531-.879 2.531-1.957 0-1.043-.656-1.57-2.531-2.039Z"
            fill="#fff"/>
    </g>
  </g>
  <defs>
    <filter id="filter0_ii_354_20063" x="18" y="18" width="64" height="65" filterUnits="userSpaceOnUse"
            color-interpolation-filters="sRGB">
      <feFlood flood-opacity="0" result="BackgroundImageFix"/>
      <feBlend in="SourceGraphic" in2="BackgroundImageFix" result="shape"/>
      <feColorMatrix in="SourceAlpha" values="0 0 0 0 0 0 0 0 0 0 0 0 0 0 0 0 0 0 127 0" result="hardAlpha"/>
      <feMorphology radius="3" in="SourceAlpha" result="effect1_innerShadow_354_20063"/>
      <feOffset/>
      <feGaussianBlur stdDeviation="4"/>
      <feComposite in2="hardAlpha" operator="arithmetic" k2="-1" k3="1"/>
      <feColorMatrix values="0 0 0 0 0 0 0 0 0 0 0 0 0 0 0 0 0 0 0.2 0"/>
      <feBlend in2="shape" result="effect1_innerShadow_354_20063"/>
      <feColorMatrix in="SourceAlpha" values="0 0 0 0 0 0 0 0 0 0 0 0 0 0 0 0 0 0 127 0" result="hardAlpha"/>
      <feOffset dy="1"/>
      <feGaussianBlur stdDeviation="2.5"/>
      <feComposite in2="hardAlpha" operator="arithmetic" k2="-1" k3="1"/>
      <feColorMatrix values="0 0 0 0 1 0 0 0 0 1 0 0 0 0 1 0 0 0 0.3 0"/>
      <feBlend in2="effect1_innerShadow_354_20063" result="effect2_innerShadow_354_20063"/>
    </filter>
    <filter id="filter1_ii_354_20063" x="23.201" y="9.981" width="53.51" height="80.037" filterUnits="userSpaceOnUse"
            color-interpolation-filters="sRGB">
      <feFlood flood-opacity="0" result="BackgroundImageFix"/>
      <feBlend in="SourceGraphic" in2="BackgroundImageFix" result="shape"/>
      <feColorMatrix in="SourceAlpha" values="0 0 0 0 0 0 0 0 0 0 0 0 0 0 0 0 0 0 127 0" result="hardAlpha"/>
      <feOffset dy="-2"/>
      <feComposite in2="hardAlpha" operator="arithmetic" k2="-1" k3="1"/>
      <feColorMatrix values="0 0 0 0 0 0 0 0 0 0 0 0 0 0 0 0 0 0 0.1 0"/>
      <feBlend in2="shape" result="effect1_innerShadow_354_20063"/>
      <feColorMatrix in="SourceAlpha" values="0 0 0 0 0 0 0 0 0 0 0 0 0 0 0 0 0 0 127 0" result="hardAlpha"/>
      <feOffset dy="2"/>
      <feComposite in2="hardAlpha" operator="arithmetic" k2="-1" k3="1"/>
      <feColorMatrix values="0 0 0 0 1 0 0 0 0 1 0 0 0 0 1 0 0 0 0.3 0"/>
      <feBlend in2="effect1_innerShadow_354_20063" result="effect2_innerShadow_354_20063"/>
    </filter>
    <filter id="filter2_ii_354_20063" x="25" y="25" width="50" height="50" filterUnits="userSpaceOnUse"
            color-interpolation-filters="sRGB">
      <feFlood flood-opacity="0" result="BackgroundImageFix"/>
      <feBlend in="SourceGraphic" in2="BackgroundImageFix" result="shape"/>
      <feColorMatrix in="SourceAlpha" values="0 0 0 0 0 0 0 0 0 0 0 0 0 0 0 0 0 0 127 0" result="hardAlpha"/>
      <feOffset dy="-2"/>
      <feComposite in2="hardAlpha" operator="arithmetic" k2="-1" k3="1"/>
      <feColorMatrix values="0 0 0 0 0 0 0 0 0 0 0 0 0 0 0 0 0 0 0.1 0"/>
      <feBlend in2="shape" result="effect1_innerShadow_354_20063"/>
      <feColorMatrix in="SourceAlpha" values="0 0 0 0 0 0 0 0 0 0 0 0 0 0 0 0 0 0 127 0" result="hardAlpha"/>
      <feOffset dy="2"/>
      <feComposite in2="hardAlpha" operator="arithmetic" k2="-1" k3="1"/>
      <feColorMatrix values="0 0 0 0 1 0 0 0 0 1 0 0 0 0 1 0 0 0 0.3 0"/>
      <feBlend in2="effect1_innerShadow_354_20063" result="effect2_innerShadow_354_20063"/>
    </filter>
    <filter id="filter3_f_354_20063" x="38.642" y="37.794" width="22.439" height="33.162" filterUnits="userSpaceOnUse"
            color-interpolation-filters="sRGB">
      <feFlood flood-opacity="0" result="BackgroundImageFix"/>
      <feBlend in="SourceGraphic" in2="BackgroundImageFix" result="shape"/>
      <feGaussianBlur stdDeviation="2.718" result="effect1_foregroundBlur_354_20063"/>
    </filter>
    <filter id="filter4_ii_354_20063" x="44.5" y="36.215" width="12.645" height="20.625" filterUnits="userSpaceOnUse"
            color-interpolation-filters="sRGB">
      <feFlood flood-opacity="0" result="BackgroundImageFix"/>
      <feBlend in="SourceGraphic" in2="BackgroundImageFix" result="shape"/>
      <feColorMatrix in="SourceAlpha" values="0 0 0 0 0 0 0 0 0 0 0 0 0 0 0 0 0 0 127 0" result="hardAlpha"/>
      <feOffset dy="-2"/>
      <feComposite in2="hardAlpha" operator="arithmetic" k2="-1" k3="1"/>
      <feColorMatrix values="0 0 0 0 0 0 0 0 0 0 0 0 0 0 0 0 0 0 0.1 0"/>
      <feBlend in2="shape" result="effect1_innerShadow_354_20063"/>
      <feColorMatrix in="SourceAlpha" values="0 0 0 0 0 0 0 0 0 0 0 0 0 0 0 0 0 0 127 0" result="hardAlpha"/>
      <feOffset dy="2"/>
      <feComposite in2="hardAlpha" operator="arithmetic" k2="-1" k3="1"/>
      <feColorMatrix values="0 0 0 0 1 0 0 0 0 1 0 0 0 0 1 0 0 0 0.3 0"/>
      <feBlend in2="effect1_innerShadow_354_20063" result="effect2_innerShadow_354_20063"/>
    </filter>
    <linearGradient id="paint0_linear_354_20063" x1="26.311" y1="25.054" x2="26.311" y2="78.633"
                    gradientUnits="userSpaceOnUse">
      <stop stop-color="#2287DF"/>
      <stop offset="1" stop-color="#005EAF"/>
    </linearGradient>
    <linearGradient id="paint1_linear_354_20063" x1="81.74" y1="93.78" x2="81.74" y2="6.22"
                    gradientUnits="userSpaceOnUse">
      <stop stop-color="#F30"/>
      <stop offset="1" stop-color="#EA7415"/>
    </linearGradient>
    <clipPath id="clip0_354_20063">
      <path fill="#fff" transform="translate(18 10)" d="M0 0h64v80H0z"/>
    </clipPath>
  </defs>
</svg>