<svg width="100" height="100" viewBox="0 0 100 100" fill="none" xmlns="http://www.w3.org/2000/svg">
  <g filter="url(#filter0_ii_354_20198)">
    <rect x="24" y="16" width="52" height="67" rx="5" fill="#293349"/>
  </g>
  <rect x="28" y="22" width="44" height="57" rx="1" fill="#fff"/>
  <mask id="mask0_354_20198" style="mask-type:alpha" maskUnits="userSpaceOnUse" x="28" y="22" width="44" height="57">
    <rect x="28" y="22" width="44" height="57" rx="1" fill="#fff"/>
  </mask>
  <g opacity=".9" filter="url(#filter1_f_354_20198)" mask="url(#mask0_354_20198)">
    <path d="m20.766 64.946 9.58-5.32a3 3 0 0 1 2.856-.032l9.894 5.215a3 3 0 0 0 3.186-.244l9.298-6.896a3 3 0 0 1 2.956-.353l9.453 4.001a3 3 0 0 0 2.712-.19L82 54.35"
          stroke="#28820C" stroke-opacity=".2" stroke-width="3" stroke-linecap="round" stroke-linejoin="round"/>
  </g>
  <g filter="url(#filter2_ii_354_20198)">
    <rect x="40" y="14" width="20" height="9" rx="2" fill="url(#paint0_linear_354_20198)"/>
  </g>
  <path opacity=".1" fill-rule="evenodd" clip-rule="evenodd" d="M34 71h38v.5H34V71Z" fill="#000"/>
  <path d="m20.766 52.946 9.58-5.32a3 3 0 0 1 2.856-.032l9.894 5.215a3 3 0 0 0 3.186-.244l9.298-6.896a3 3 0 0 1 2.956-.353l9.453 4.001a3 3 0 0 0 2.712-.19L82 42.35"
        stroke="#5AC339" stroke-width="3" stroke-linecap="round" stroke-linejoin="round"/>
  <path opacity=".1" fill-rule="evenodd" clip-rule="evenodd"
        d="M34 34h.5v37H34V34Zm8 0h.5v37H42V34Zm8.5 0H50v37h.5V34Zm7.5 0h.5v37H58V34Zm8.5 0H66v37h.5V34Z" fill="#000"/>
  <defs>
    <filter id="filter0_ii_354_20198" x="24" y="16" width="52" height="67" filterUnits="userSpaceOnUse"
            color-interpolation-filters="sRGB">
      <feFlood flood-opacity="0" result="BackgroundImageFix"/>
      <feBlend in="SourceGraphic" in2="BackgroundImageFix" result="shape"/>
      <feColorMatrix in="SourceAlpha" values="0 0 0 0 0 0 0 0 0 0 0 0 0 0 0 0 0 0 127 0" result="hardAlpha"/>
      <feMorphology radius="3" in="SourceAlpha" result="effect1_innerShadow_354_20198"/>
      <feOffset/>
      <feGaussianBlur stdDeviation="4"/>
      <feComposite in2="hardAlpha" operator="arithmetic" k2="-1" k3="1"/>
      <feColorMatrix values="0 0 0 0 0 0 0 0 0 0 0 0 0 0 0 0 0 0 0.2 0"/>
      <feBlend in2="shape" result="effect1_innerShadow_354_20198"/>
      <feColorMatrix in="SourceAlpha" values="0 0 0 0 0 0 0 0 0 0 0 0 0 0 0 0 0 0 127 0" result="hardAlpha"/>
      <feOffset dy="1"/>
      <feComposite in2="hardAlpha" operator="arithmetic" k2="-1" k3="1"/>
      <feColorMatrix values="0 0 0 0 1 0 0 0 0 1 0 0 0 0 1 0 0 0 0.3 0"/>
      <feBlend in2="effect1_innerShadow_354_20198" result="effect2_innerShadow_354_20198"/>
    </filter>
    <filter id="filter1_f_354_20198" x="13.829" y="47.412" width="75.108" height="24.68" filterUnits="userSpaceOnUse"
            color-interpolation-filters="sRGB">
      <feFlood flood-opacity="0" result="BackgroundImageFix"/>
      <feBlend in="SourceGraphic" in2="BackgroundImageFix" result="shape"/>
      <feGaussianBlur stdDeviation="2.718" result="effect1_foregroundBlur_354_20198"/>
    </filter>
    <filter id="filter2_ii_354_20198" x="40" y="14" width="20" height="9" filterUnits="userSpaceOnUse"
            color-interpolation-filters="sRGB">
      <feFlood flood-opacity="0" result="BackgroundImageFix"/>
      <feBlend in="SourceGraphic" in2="BackgroundImageFix" result="shape"/>
      <feColorMatrix in="SourceAlpha" values="0 0 0 0 0 0 0 0 0 0 0 0 0 0 0 0 0 0 127 0" result="hardAlpha"/>
      <feOffset dy="-2"/>
      <feComposite in2="hardAlpha" operator="arithmetic" k2="-1" k3="1"/>
      <feColorMatrix values="0 0 0 0 0 0 0 0 0 0 0 0 0 0 0 0 0 0 0.1 0"/>
      <feBlend in2="shape" result="effect1_innerShadow_354_20198"/>
      <feColorMatrix in="SourceAlpha" values="0 0 0 0 0 0 0 0 0 0 0 0 0 0 0 0 0 0 127 0" result="hardAlpha"/>
      <feOffset dy="2"/>
      <feComposite in2="hardAlpha" operator="arithmetic" k2="-1" k3="1"/>
      <feColorMatrix values="0 0 0 0 1 0 0 0 0 1 0 0 0 0 1 0 0 0 0.3 0"/>
      <feBlend in2="effect1_innerShadow_354_20198" result="effect2_innerShadow_354_20198"/>
    </filter>
    <linearGradient id="paint0_linear_354_20198" x1="61.88" y1="23.423" x2="61.88" y2="13.577"
                    gradientUnits="userSpaceOnUse">
      <stop stop-color="#F30"/>
      <stop offset="1" stop-color="#EA7415"/>
    </linearGradient>
  </defs>
</svg>