<svg width="100" height="100" viewBox="0 0 100 100" fill="none" xmlns="http://www.w3.org/2000/svg">
  <g filter="url(#filter0_ii_354_20230)">
    <circle cx="28" cy="42" r="25" fill="#5AC339"/>
  </g>
  <g filter="url(#filter1_ii_354_20230)">
    <circle cx="72" cy="42" r="25" fill="url(#paint0_linear_354_20230)"/>
  </g>
  <g opacity=".3" filter="url(#filter2_f_354_20230)">
    <circle cx="50" cy="64" r="29" fill="#001E39"/>
  </g>
  <g filter="url(#filter3_ii_354_20230)">
    <circle cx="50" cy="67" r="25" fill="url(#paint1_linear_354_20230)"/>
  </g>
  <g filter="url(#filter4_di_354_20230)">
    <path fill-rule="evenodd" clip-rule="evenodd"
          d="M48.844 68.552h2.806c1.575 0 2.86-.49 3.856-1.473.996-.981 1.494-2.249 1.494-3.803 0-1.553-.498-2.82-1.494-3.803C54.51 58.492 53.225 58 51.65 58h-5.202c-.11 0-.2.036-.272.108a.382.382 0 0 0-.106.278v7.595h-1.692c-.11 0-.2.038-.272.115a.387.387 0 0 0-.106.271v1.799a.38.38 0 0 0 .106.278.363.363 0 0 0 .272.108h1.679v2.198h-1.679c-.11 0-.2.036-.272.109a.38.38 0 0 0-.106.277v1.546c0 .028.002.055.007.081a.362.362 0 0 0 .371.305h1.679v1.546c0 .112.035.205.106.277.071.073.162.109.272.109h2.032c.102 0 .19-.036.265-.109a.368.368 0 0 0 .112-.277v-1.546h4.15a.368.368 0 0 0 .272-.108.38.38 0 0 0 .106-.278v-1.546a.38.38 0 0 0-.106-.277.363.363 0 0 0-.272-.109h-4.15v-2.198Zm0-7.98h2.57c.834 0 1.508.25 2.02.748.511.5.767 1.152.767 1.956 0 .805-.256 1.458-.768 1.956-.511.5-1.185.75-2.019.75h-2.57v-5.41Z"
          fill="#0157A1"/>
  </g>
  <defs>
    <filter id="filter0_ii_354_20230" x="3" y="17" width="50" height="50" filterUnits="userSpaceOnUse"
            color-interpolation-filters="sRGB">
      <feFlood flood-opacity="0" result="BackgroundImageFix"/>
      <feBlend in="SourceGraphic" in2="BackgroundImageFix" result="shape"/>
      <feColorMatrix in="SourceAlpha" values="0 0 0 0 0 0 0 0 0 0 0 0 0 0 0 0 0 0 127 0" result="hardAlpha"/>
      <feOffset dy="-2"/>
      <feComposite in2="hardAlpha" operator="arithmetic" k2="-1" k3="1"/>
      <feColorMatrix values="0 0 0 0 0 0 0 0 0 0 0 0 0 0 0 0 0 0 0.1 0"/>
      <feBlend in2="shape" result="effect1_innerShadow_354_20230"/>
      <feColorMatrix in="SourceAlpha" values="0 0 0 0 0 0 0 0 0 0 0 0 0 0 0 0 0 0 127 0" result="hardAlpha"/>
      <feOffset dy="2"/>
      <feComposite in2="hardAlpha" operator="arithmetic" k2="-1" k3="1"/>
      <feColorMatrix values="0 0 0 0 1 0 0 0 0 1 0 0 0 0 1 0 0 0 0.3 0"/>
      <feBlend in2="effect1_innerShadow_354_20230" result="effect2_innerShadow_354_20230"/>
    </filter>
    <filter id="filter1_ii_354_20230" x="47" y="17" width="50" height="50" filterUnits="userSpaceOnUse"
            color-interpolation-filters="sRGB">
      <feFlood flood-opacity="0" result="BackgroundImageFix"/>
      <feBlend in="SourceGraphic" in2="BackgroundImageFix" result="shape"/>
      <feColorMatrix in="SourceAlpha" values="0 0 0 0 0 0 0 0 0 0 0 0 0 0 0 0 0 0 127 0" result="hardAlpha"/>
      <feOffset dy="-2"/>
      <feComposite in2="hardAlpha" operator="arithmetic" k2="-1" k3="1"/>
      <feColorMatrix values="0 0 0 0 0 0 0 0 0 0 0 0 0 0 0 0 0 0 0.1 0"/>
      <feBlend in2="shape" result="effect1_innerShadow_354_20230"/>
      <feColorMatrix in="SourceAlpha" values="0 0 0 0 0 0 0 0 0 0 0 0 0 0 0 0 0 0 127 0" result="hardAlpha"/>
      <feOffset dy="2"/>
      <feComposite in2="hardAlpha" operator="arithmetic" k2="-1" k3="1"/>
      <feColorMatrix values="0 0 0 0 1 0 0 0 0 1 0 0 0 0 1 0 0 0 0.3 0"/>
      <feBlend in2="effect1_innerShadow_354_20230" result="effect2_innerShadow_354_20230"/>
    </filter>
    <filter id="filter2_f_354_20230" x="15.563" y="29.563" width="68.873" height="68.873" filterUnits="userSpaceOnUse"
            color-interpolation-filters="sRGB">
      <feFlood flood-opacity="0" result="BackgroundImageFix"/>
      <feBlend in="SourceGraphic" in2="BackgroundImageFix" result="shape"/>
      <feGaussianBlur stdDeviation="2.718" result="effect1_foregroundBlur_354_20230"/>
    </filter>
    <filter id="filter3_ii_354_20230" x="25" y="42" width="50" height="51" filterUnits="userSpaceOnUse"
            color-interpolation-filters="sRGB">
      <feFlood flood-opacity="0" result="BackgroundImageFix"/>
      <feBlend in="SourceGraphic" in2="BackgroundImageFix" result="shape"/>
      <feColorMatrix in="SourceAlpha" values="0 0 0 0 0 0 0 0 0 0 0 0 0 0 0 0 0 0 127 0" result="hardAlpha"/>
      <feMorphology radius="3" in="SourceAlpha" result="effect1_innerShadow_354_20230"/>
      <feOffset/>
      <feGaussianBlur stdDeviation="4"/>
      <feComposite in2="hardAlpha" operator="arithmetic" k2="-1" k3="1"/>
      <feColorMatrix values="0 0 0 0 0 0 0 0 0 0 0 0 0 0 0 0 0 0 0.2 0"/>
      <feBlend in2="shape" result="effect1_innerShadow_354_20230"/>
      <feColorMatrix in="SourceAlpha" values="0 0 0 0 0 0 0 0 0 0 0 0 0 0 0 0 0 0 127 0" result="hardAlpha"/>
      <feOffset dy="1"/>
      <feGaussianBlur stdDeviation="2.5"/>
      <feComposite in2="hardAlpha" operator="arithmetic" k2="-1" k3="1"/>
      <feColorMatrix values="0 0 0 0 1 0 0 0 0 1 0 0 0 0 1 0 0 0 0.3 0"/>
      <feBlend in2="effect1_innerShadow_354_20230" result="effect2_innerShadow_354_20230"/>
    </filter>
    <filter id="filter4_di_354_20230" x="44" y="57" width="15" height="19" filterUnits="userSpaceOnUse"
            color-interpolation-filters="sRGB">
      <feFlood flood-opacity="0" result="BackgroundImageFix"/>
      <feColorMatrix in="SourceAlpha" values="0 0 0 0 0 0 0 0 0 0 0 0 0 0 0 0 0 0 127 0" result="hardAlpha"/>
      <feOffset dx="1"/>
      <feGaussianBlur stdDeviation=".5"/>
      <feColorMatrix values="0 0 0 0 1 0 0 0 0 1 0 0 0 0 1 0 0 0 0.2 0"/>
      <feBlend in2="BackgroundImageFix" result="effect1_dropShadow_354_20230"/>
      <feBlend in="SourceGraphic" in2="effect1_dropShadow_354_20230" result="shape"/>
      <feColorMatrix in="SourceAlpha" values="0 0 0 0 0 0 0 0 0 0 0 0 0 0 0 0 0 0 127 0" result="hardAlpha"/>
      <feOffset/>
      <feGaussianBlur stdDeviation=".5"/>
      <feComposite in2="hardAlpha" operator="arithmetic" k2="-1" k3="1"/>
      <feColorMatrix values="0 0 0 0 0 0 0 0 0 0 0 0 0 0 0 0 0 0 0.4 0"/>
      <feBlend in2="shape" result="effect2_innerShadow_354_20230"/>
    </filter>
    <linearGradient id="paint0_linear_354_20230" x1="101.699" y1="69.35" x2="101.699" y2="14.65"
                    gradientUnits="userSpaceOnUse">
      <stop stop-color="#F30"/>
      <stop offset="1" stop-color="#EA7415"/>
    </linearGradient>
    <linearGradient id="paint1_linear_354_20230" x1="31.493" y1="47.511" x2="31.493" y2="89.37"
                    gradientUnits="userSpaceOnUse">
      <stop stop-color="#2287DF"/>
      <stop offset="1" stop-color="#005EAF"/>
    </linearGradient>
  </defs>
</svg>