<svg width="145" height="32" viewBox="0 0 145 32" fill="none" xmlns="http://www.w3.org/2000/svg">
  <g clip-path="url(#a)">
    <path fill-rule="evenodd" clip-rule="evenodd" d="M39.333 32c1.841 0 3.334-1.48 3.334-3.307V3.31c0-2.195-2.116-3.781-4.245-3.181l-4 1.127A3.31 3.31 0 0 0 32 4.436V32h7.333Z" fill="url(#b)"/>
    <path fill-rule="evenodd" clip-rule="evenodd" d="M32 32V13.227l-5.333-2.56V29.44L32 32Z" fill="url(#c)"/>
    <path fill-rule="evenodd" clip-rule="evenodd" d="M23.333 32a3.333 3.333 0 0 0 3.334-3.333v-18l-8.193 2.184A3.333 3.333 0 0 0 16 16.072V32h7.333Z" fill="url(#d)"/>
    <path fill-rule="evenodd" clip-rule="evenodd" d="M16 32V18.456L10.667 16v13.505L16 32Z" fill="url(#e)"/>
    <path fill-rule="evenodd" clip-rule="evenodd" d="M7.333 32a3.333 3.333 0 0 0 3.334-3.333V16l-8.1 1.916A3.333 3.333 0 0 0 0 21.16v7.507A3.333 3.333 0 0 0 3.333 32h4Z" fill="url(#f)"/>
    <path d="M54.957 28.24c-.62 0-1.11-.17-1.47-.51-.34-.36-.51-.87-.51-1.53V8.89c0-.66.17-1.16.51-1.5.36-.36.87-.54 1.53-.54h10.47c.52 0 .91.13 1.17.39.26.26.39.63.39 1.11 0 .5-.13.89-.39 1.17-.26.26-.65.39-1.17.39h-8.67v5.97h8.04c.5 0 .88.13 1.14.39.28.26.42.63.42 1.11 0 .5-.14.89-.42 1.17-.26.26-.64.39-1.14.39h-8.04v7.26c0 1.36-.62 2.04-1.86 2.04Zm18.785 0c-.62 0-1.1-.17-1.44-.51-.32-.36-.48-.85-.48-1.47V8.59c0-.64.16-1.13.48-1.47.34-.34.82-.51 1.44-.51s1.09.17 1.41.51c.34.34.51.83.51 1.47v17.67c0 .62-.16 1.11-.48 1.47-.32.34-.8.51-1.44.51Zm10.347 0c-.58 0-1.03-.16-1.35-.48-.3-.32-.45-.78-.45-1.38V8.53c0-.62.15-1.09.45-1.41.32-.34.73-.51 1.23-.51.46 0 .8.09 1.02.27.24.16.52.44.84.84l11.49 14.91h-.78V8.44c0-.58.15-1.03.45-1.35.32-.32.77-.48 1.35-.48.58 0 1.02.16 1.32.48.3.32.45.77.45 1.35v18c0 .56-.14 1-.42 1.32-.28.32-.66.48-1.14.48-.46 0-.83-.09-1.11-.27-.26-.18-.55-.47-.87-.87L85.11 12.19h.75v14.19c0 .6-.15 1.06-.45 1.38-.3.32-.74.48-1.32.48Zm24.682-.24c-.66 0-1.17-.17-1.53-.51-.34-.36-.51-.87-.51-1.53V8.89c0-.66.17-1.16.51-1.5.36-.36.87-.54 1.53-.54h10.71c.5 0 .88.13 1.14.39.28.26.42.63.42 1.11 0 .5-.14.89-.42 1.17-.26.26-.64.39-1.14.39h-9.06v5.82h8.4c.52 0 .91.13 1.17.39.26.26.39.64.39 1.14 0 .5-.13.88-.39 1.14-.26.26-.65.39-1.17.39h-8.4v6.15h9.06c.5 0 .88.13 1.14.39.28.26.42.64.42 1.14 0 .5-.14.88-.42 1.14-.26.26-.64.39-1.14.39h-10.71Zm18.433.24c-.5 0-.91-.13-1.23-.39-.32-.28-.51-.62-.57-1.02-.04-.42.1-.84.42-1.26l6.87-9.15v1.65l-6.54-8.76c-.32-.44-.46-.86-.42-1.26.04-.42.22-.76.54-1.02.32-.28.72-.42 1.2-.42.4 0 .75.1 1.05.3.32.18.64.49.96.93l5.4 7.44h-1.23l5.37-7.44c.32-.44.63-.75.93-.93.32-.2.69-.3 1.11-.3.5 0 .91.13 1.23.39.32.26.5.6.54 1.02.04.4-.11.83-.45 1.29l-6.54 8.76v-1.65l6.84 9.15c.32.42.46.84.42 1.26-.04.4-.22.74-.54 1.02-.32.26-.74.39-1.26.39-.38 0-.73-.1-1.05-.3-.3-.2-.62-.52-.96-.96l-5.7-7.8h1.32l-5.67 7.8c-.32.44-.64.76-.96.96-.32.2-.68.3-1.08.3Z" fill="#ffffff"/>
  </g>
  <defs>
    <linearGradient id="b" x1="42.667" y1=".034" x2="42.667" y2="32" gradientUnits="userSpaceOnUse">
      <stop offset=".001" stop-color="#4E5BA6"/>
      <stop offset="1" stop-color="#363F72"/>
    </linearGradient>
    <linearGradient id="c" x1="0" y1="0" x2="0" y2="32" gradientUnits="userSpaceOnUse">
      <stop stop-color="#444CE7"/>
      <stop offset="1" stop-color="#2D31A6"/>
    </linearGradient>
    <linearGradient id="d" x1="42.667" y1="0" x2="0" y2="0" gradientUnits="userSpaceOnUse">
      <stop stop-color="#6172F3"/>
      <stop offset="1" stop-color="#3538CD"/>
    </linearGradient>
    <linearGradient id="e" x1="0" y1="0" x2="0" y2="32" gradientUnits="userSpaceOnUse">
      <stop stop-color="#FB6514"/>
      <stop offset="1" stop-color="#C4320A"/>
    </linearGradient>
    <linearGradient id="f" x1="10.667" y1="16" x2="10.667" y2="32" gradientUnits="userSpaceOnUse">
      <stop stop-color="#FD853A"/>
      <stop offset="1" stop-color="#EC4A0A"/>
    </linearGradient>
    <clipPath id="a">
      <path fill="#fff" d="M0 0h144.667v32H0z"/>
    </clipPath>
  </defs>
</svg>