<svg width="113" height="18" fill="none" xmlns="http://www.w3.org/2000/svg">
  <path d="M11.035 11.203H4.402V18H.29V.937h11.414v3.176h-7.3V8.04h6.632v3.164ZM29.797 18h-4.102V.937h4.102V18Zm29.11 0h-4.09L48.77 7.383V18h-4.114V.937h4.114l6.035 10.618V.938h4.101V18Zm25.183-7.23H77.62v4.066h7.64V18H73.509V.937h11.777v3.176h-7.664v3.598h6.469v3.059ZM105.3 6.61 108.09.936h4.699l-4.769 8.461L112.918 18h-4.746l-2.871-5.777L102.43 18h-4.735l4.887-8.602-4.758-8.46h4.688l2.789 5.671Z"
        fill="currentColor"/>
</svg>
