<svg width="142" height="36" viewBox="0 0 142 36" fill="none" xmlns="http://www.w3.org/2000/svg">
  <path fill-rule="evenodd" clip-rule="evenodd" d="M38.719 32C40.53 32 42 30.52 42 28.693V3.31c0-2.195-2.083-3.781-4.178-3.181l-3.937 1.127A3.303 3.303 0 0 0 31.5 4.436V32h7.219Z" fill="url(#paint0_linear_2610_22841)"/>
  <path fill-rule="evenodd" clip-rule="evenodd" d="M31.5 32V13.227l-5.25-2.56V29.44L31.5 32Z" fill="url(#paint1_linear_2610_22841)"/>
  <path fill-rule="evenodd" clip-rule="evenodd" d="M22.969 32c1.812 0 3.281-1.492 3.281-3.333v-18l-8.064 2.184c-1.436.39-2.436 1.71-2.436 3.221V32h7.219Z" fill="url(#paint2_linear_2610_22841)"/>
  <path fill-rule="evenodd" clip-rule="evenodd" d="M15.75 32V18.456L10.5 16v13.505L15.75 32Z" fill="url(#paint3_linear_2610_22841)"/>
  <path fill-rule="evenodd" clip-rule="evenodd" d="M7.219 32c1.812 0 3.281-1.492 3.281-3.333V16l-7.974 1.916C1.046 18.272 0 19.614 0 21.16v7.507C0 30.507 1.47 32 3.281 32H7.22Z" fill="url(#paint4_linear_2610_22841)"/>
  <path d="M52.375 30c-.762 0-1.353-.232-1.774-.697-.4-.465-.601-1.14-.601-2.025V8.988c0-.864.21-1.527.631-1.992.421-.465 1.022-.697 1.804-.697h10.28c.6 0 1.052.177 1.352.53.32.333.481.82.481 1.461 0 .664-.16 1.173-.48 1.527-.301.332-.752.498-1.353.498h-8.056v5.71h7.394c.602 0 1.063.177 1.383.531.32.332.481.819.481 1.46 0 .642-.16 1.14-.48 1.494-.322.354-.782.531-1.384.531H54.66v7.237c0 1.815-.761 2.722-2.284 2.722ZM71.491 30c-.761 0-1.343-.232-1.743-.697-.401-.465-.602-1.118-.602-1.959V8.656c0-.841.2-1.494.602-1.959.4-.465.982-.697 1.743-.697.742 0 1.313.232 1.713.697.401.465.602 1.118.602 1.959v18.688c0 .841-.2 1.494-.602 1.959-.38.465-.951.697-1.713.697ZM82.238 30c-.701 0-1.242-.21-1.623-.63-.36-.443-.541-1.063-.541-1.86V8.59c0-.842.18-1.484.541-1.926.38-.443.882-.664 1.503-.664.541 0 .952.122 1.232.365.3.221.642.598 1.022 1.129l10.55 14.838h-.81V8.456c0-.774.18-1.372.54-1.792.381-.443.922-.664 1.623-.664.702 0 1.233.221 1.593.664.381.42.572 1.018.572 1.792V27.61c0 .73-.17 1.317-.511 1.76-.341.42-.802.63-1.383.63-.561 0-1.012-.122-1.353-.365-.32-.244-.671-.63-1.052-1.162l-10.52-14.838h.781V27.51c0 .797-.18 1.417-.54 1.86-.361.42-.902.63-1.624.63ZM107.144 29.701c-.781 0-1.382-.232-1.803-.697-.421-.465-.631-1.129-.631-1.992V8.988c0-.864.21-1.527.631-1.992.421-.465 1.022-.697 1.803-.697h10.491c.601 0 1.052.177 1.352.53.321.333.481.82.481 1.461 0 .664-.16 1.173-.481 1.527-.3.332-.751.498-1.352.498h-8.477v5.478h7.785c.622 0 1.083.177 1.383.53.321.333.481.83.481 1.494s-.16 1.173-.481 1.527c-.3.332-.761.498-1.383.498h-7.785v5.843h8.477c.601 0 1.052.177 1.352.53.321.333.481.82.481 1.461 0 .664-.16 1.173-.481 1.527-.3.332-.751.498-1.352.498h-10.491ZM126.147 30c-.601 0-1.102-.177-1.502-.531a2.209 2.209 0 0 1-.662-1.361c-.06-.553.1-1.118.481-1.693l6.643-9.726v2.29l-6.372-9.36c-.381-.598-.551-1.163-.511-1.694.06-.553.28-1.007.661-1.36.401-.377.892-.565 1.473-.565.501 0 .932.133 1.292.398.381.266.762.686 1.143 1.262l4.959 7.568h-1.503l4.93-7.568c.381-.598.761-1.018 1.142-1.262A2.256 2.256 0 0 1 139.644 6c.601 0 1.092.177 1.473.531.4.354.621.808.661 1.361.06.531-.11 1.107-.511 1.726l-6.403 9.361v-2.29l6.613 9.726c.401.575.571 1.14.511 1.693-.04.531-.26.985-.661 1.36-.381.355-.882.532-1.503.532-.481 0-.912-.133-1.292-.398-.361-.266-.742-.697-1.143-1.295l-5.17-7.867h1.533l-5.17 7.867c-.381.598-.761 1.03-1.142 1.295a2.208 2.208 0 0 1-1.293.398Z" fill="currentColor"/>
  <defs>
    <linearGradient id="paint0_linear_2610_22841" x1="42" y1=".034" x2="42" y2="32" gradientUnits="userSpaceOnUse">
      <stop offset=".001" stop-color="#4E5BA6"/>
      <stop offset="1" stop-color="#363F72"/>
    </linearGradient>
    <linearGradient id="paint1_linear_2610_22841" x1="0" y1="0" x2="0" y2="32" gradientUnits="userSpaceOnUse">
      <stop stop-color="#444CE7"/>
      <stop offset="1" stop-color="#2D31A6"/>
    </linearGradient>
    <linearGradient id="paint2_linear_2610_22841" x1="42" y1="0" x2="0" y2="0" gradientUnits="userSpaceOnUse">
      <stop stop-color="#616EF3"/>
      <stop offset="1" stop-color="#3538CD"/>
    </linearGradient>
    <linearGradient id="paint3_linear_2610_22841" x1="0" y1="0" x2="0" y2="32" gradientUnits="userSpaceOnUse">
      <stop stop-color="#FB6514"/>
      <stop offset="1" stop-color="#C4320A"/>
    </linearGradient>
    <linearGradient id="paint4_linear_2610_22841" x1="10.5" y1="16" x2="10.5" y2="32" gradientUnits="userSpaceOnUse">
      <stop stop-color="#FD853A"/>
      <stop offset="1" stop-color="#EC4A0A"/>
    </linearGradient>
  </defs>
</svg>